<svg width="185" height="113" viewBox="0 0 185 113" fill="none" xmlns="http://www.w3.org/2000/svg">
<path d="M19.5194 39.1689C30.3002 79.4034 71.6562 103.28 111.891 92.4996C152.125 81.7188 176.002 40.3627 165.221 0.128219C154.441 -40.1063 113.084 -63.9832 72.85 -53.2024C32.6155 -42.4216 8.73859 -1.06554 19.5194 39.1689Z" fill="black"/>
<path d="M82.0964 61.4422L66.6156 65.5903L53.5613 16.8712L69.0422 12.7231L82.0964 61.4422ZM59.4717 7.96734C54.4632 9.30936 49.8446 6.64283 48.5026 1.63433C47.1606 -3.37418 50.2824 -8.11475 54.8356 -9.33477C59.8441 -10.6768 64.4627 -8.01027 65.8047 -3.00176C67.1468 2.00674 64.4802 6.62532 59.4717 7.96734ZM138.556 46.3139L123.075 50.462L115.999 24.0535C113.925 16.3131 110.128 14.8905 105.574 16.1105C101.021 17.3306 97.4441 22.1931 99.2741 29.0229L106.228 54.9761L90.7474 59.1241L77.6932 10.405L92.2634 6.50097L94.0934 13.3308C94.6054 9.77752 98.7271 3.30499 106.468 1.23095C115.119 -1.08709 125.567 1.48135 129.593 16.5069L137.645 46.5579L138.556 46.3139Z" fill="#FE0AB7"/>
</svg>
